<?xml version="1.0" encoding="iso-8859-1"?>
<!-- Generator: Adobe Illustrator 19.0.0, SVG Export Plug-In . SVG Version: 6.00 Build 0)  -->
<svg version="1.1" id="Layer_1" xmlns="http://www.w3.org/2000/svg" xmlns:xlink="http://www.w3.org/1999/xlink" x="0px" y="0px"
	 viewBox="0 0 496 496" style="enable-background:new 0 0 496 496;" xml:space="preserve">
<g>
	<g>
		<path d="M449.472,152c3.312,9.296,12.112,16,22.528,16c13.232,0,24-10.768,24-24s-10.768-24-24-24
			c-10.416,0-19.216,6.704-22.528,16h-161.88c-1.528-27.648-10.792-53.224-25.808-74.568l4.296-1.952
			C270.016,62.296,274.8,64,280,64c6.352,0,12.096-2.52,16.392-6.568l47.928,27.392C344.176,85.872,344,86.912,344,88
			c0,13.232,10.768,24,24,24s24-10.768,24-24c0-2.448-0.472-4.76-1.16-6.984l67.904-37.04C462.544,46.512,467.096,48,472,48
			c13.232,0,24-10.768,24-24S485.232,0,472,0s-24,10.768-24,24c0,2.448,0.472,4.76,1.16,6.984l-67.904,37.04
			C377.456,65.488,372.904,64,368,64c-6.352,0-12.096,2.52-16.392,6.568L303.68,43.176C303.816,42.128,304,41.088,304,40
			c0-13.232-10.768-24-24-24s-24,10.768-24,24c0,2.12,0.36,4.128,0.88,6.088l-5.376,2.44C225.104,18.84,186.752,0,144,0
			C64.6,0,0,64.6,0,144c0,68.392,47.968,125.68,112,140.288V312H80v16h16v120c0,26.472,21.528,48,48,48s48-21.528,48-48V328h16v-16
			h-32v-27.712c38.32-8.744,70.784-32.8,90.744-65.384C270.736,226.64,278.712,232,288,232c6.64,0,12.648-2.712,17-7.08
			l55.24,20.712c-0.08,0.792-0.24,1.56-0.24,2.368c0,13.232,10.768,24,24,24s24-10.768,24-24c0-0.36-0.088-0.688-0.104-1.048
			l46.592-6.656C458.872,245.008,465.072,248,472,248c13.232,0,24-10.768,24-24s-10.768-24-24-24s-24,10.768-24,24
			c0,0.36,0.088,0.688,0.104,1.048l-46.592,6.656C397.128,226.992,390.928,224,384,224c-6.64,0-12.648,2.712-17,7.08l-55.24-20.712
			c0.08-0.792,0.24-1.56,0.24-2.368c0-13.232-10.768-24-24-24c-2.08,0-4.064,0.352-5.992,0.848
			c3.112-10.496,4.952-21.512,5.584-32.848H449.472z M472,136c4.416,0,8,3.584,8,8s-3.584,8-8,8c-4.416,0-8-3.584-8-8
			S467.584,136,472,136z M472,16c4.416,0,8,3.584,8,8s-3.584,8-8,8c-4.416,0-8-3.584-8-8S467.584,16,472,16z M368,80
			c4.416,0,8,3.584,8,8s-3.584,8-8,8c-4.416,0-8-3.584-8-8S363.584,80,368,80z M280,32c4.416,0,8,3.584,8,8s-3.584,8-8,8
			c-4.416,0-8-3.584-8-8S275.584,32,280,32z M472,216c4.416,0,8,3.584,8,8s-3.584,8-8,8c-4.416,0-8-3.584-8-8S467.584,216,472,216z
			 M384,240c4.416,0,8,3.584,8,8s-3.584,8-8,8c-4.416,0-8-3.584-8-8C376,243.584,379.584,240,384,240z M176,448
			c0,17.648-14.352,32-32,32s-32-14.352-32-32V328h64V448z M128,312v-24.944c5.256,0.584,10.584,0.944,16,0.944
			s10.736-0.36,16-0.944V312H128z M144,272c-70.576,0-128-57.424-128-128S73.424,16,144,16c36.232,0,68.92,15.2,92.232,39.472
			l-23.504,10.68C194.376,49.936,170.352,40,144,40C86.656,40,40,86.656,40,144s46.656,104,104,104
			c33.624,0,63.48-16.112,82.504-40.944l25.632,5.128C229.432,248.056,189.504,272,144,272z M128,120c-13.232,0-24,10.768-24,24
			s10.768,24,24,24c10.416,0,19.216-6.704,22.528-16H231.6c-1.232,13.568-5.592,26.208-12.296,37.304l-20.392-4.08
			C195.96,175.304,186.864,168,176,168c-13.232,0-24,10.768-24,24s10.768,24,24,24c9.912,0,18.432-6.04,22.088-14.624l10.568,2.112
			C192.56,220.968,169.576,232,144,232c-48.52,0-88-39.48-88-88s39.48-88,88-88c19.68,0,37.816,6.576,52.488,17.536l-6.576,2.984
			C185.984,73.704,181.2,72,176,72c-13.232,0-24,10.768-24,24s10.768,24,24,24s24-10.768,24-24c0-2.112-0.36-4.128-0.88-6.088
			l10.224-4.648c12.352,13.728,20.488,31.304,22.248,50.736h-81.064C147.216,126.704,138.416,120,128,120z M136,144
			c0,4.416-3.584,8-8,8s-8-3.584-8-8s3.584-8,8-8S136,139.584,136,144z M184,192c0,4.416-3.584,8-8,8s-8-3.584-8-8s3.584-8,8-8
			S184,187.584,184,192z M184,96c0,4.416-3.584,8-8,8s-8-3.584-8-8s3.584-8,8-8S184,91.584,184,96z M260.144,197.472l-24.272-4.856
			c6.528-12.288,10.608-26.04,11.72-40.616h24C270.584,168.152,266.608,183.48,260.144,197.472z M247.592,136
			c-1.664-21.76-9.984-41.68-23.024-57.656l22.336-10.152c14.2,19.232,23.112,42.512,24.688,67.808H247.592z M288,200
			c4.416,0,8,3.584,8,8s-3.584,8-8,8c-4.416,0-8-3.584-8-8S283.584,200,288,200z"/>
	</g>
</g>
<g>
</g>
<g>
</g>
<g>
</g>
<g>
</g>
<g>
</g>
<g>
</g>
<g>
</g>
<g>
</g>
<g>
</g>
<g>
</g>
<g>
</g>
<g>
</g>
<g>
</g>
<g>
</g>
<g>
</g>
</svg>
