<?xml version="1.0" encoding="iso-8859-1"?>
<!-- Generator: Adobe Illustrator 19.0.0, SVG Export Plug-In . SVG Version: 6.00 Build 0)  -->
<svg version="1.1" id="Layer_1" xmlns="http://www.w3.org/2000/svg" xmlns:xlink="http://www.w3.org/1999/xlink" x="0px" y="0px"
	 viewBox="0 0 496 496" style="enable-background:new 0 0 496 496;" xml:space="preserve">
<g>
	<g>
		<g>
			<path d="M472,112h-40V56c0-13.232-10.768-24-24-24h-24V0H112v32H88c-13.232,0-24,10.768-24,24v56H24c-13.232,0-24,10.768-24,24
				v216v16v32h64v-32h48v128h272V368h48v32h64v-32v-16V136C496,122.768,485.232,112,472,112z M384,48h24c4.416,0,8,3.592,8,8v56h-32
				V48z M128,32V16h240v16v80h-16V32H144v80h-16V32z M336,48v64H160V48H336z M80,56c0-4.408,3.584-8,8-8h24v64H80V56z M48,384H16
				v-16h32V384z M112,320H80v-32h32V320z M368,480H128V288h240V480z M480,384h-32v-16h32V384z M480,352h-48h-48v-16h48v-64h-48H112
				H64v64h48v16H64H16V136c0-4.408,3.584-8,8-8h40h48h16h16h208h16h16h48h40c4.416,0,8,3.592,8,8V352z M384,320v-32h32v32H384z"/>
			<path d="M432,144c-17.648,0-32,14.352-32,32s14.352,32,32,32s32-14.352,32-32S449.648,144,432,144z M432,192
				c-8.824,0-16-7.176-16-16c0-8.824,7.176-16,16-16c8.824,0,16,7.176,16,16C448,184.824,440.824,192,432,192z"/>
			<path d="M352,144c-17.648,0-32,14.352-32,32s14.352,32,32,32s32-14.352,32-32S369.648,144,352,144z M352,192
				c-8.824,0-16-7.176-16-16c0-8.824,7.176-16,16-16c8.824,0,16,7.176,16,16C368,184.824,360.824,192,352,192z"/>
			<rect x="64" y="168" width="16" height="16"/>
			<rect x="32" y="168" width="16" height="16"/>
			<path d="M352,304H144v64h208V304z M336,352H160v-32h176V352z"/>
			<rect x="144" y="384" width="208" height="16"/>
			<rect x="144" y="416" width="208" height="16"/>
			<rect x="336" y="448" width="16" height="16"/>
			<rect x="144" y="448" width="176" height="16"/>
		</g>
	</g>
</g>
<g>
</g>
<g>
</g>
<g>
</g>
<g>
</g>
<g>
</g>
<g>
</g>
<g>
</g>
<g>
</g>
<g>
</g>
<g>
</g>
<g>
</g>
<g>
</g>
<g>
</g>
<g>
</g>
<g>
</g>
</svg>
